/* XPM */
static char * muro_xpm[] = {
"100 100 46 1",
" 	c #1C1B1B",
".	c #1B1B1B",
"+	c #191919",
"@	c #161616",
"#	c #0F0F0F",
"$	c #060606",
"%	c #000000",
"&	c #131313",
"*	c #1D1D1D",
"=	c #232222",
"-	c #252525",
";	c #262626",
">	c #272626",
",	c #272727",
"'	c #272828",
")	c #272929",
"!	c #1D1C1C",
"~	c #1C1C1C",
"{	c #1A1A1A",
"]	c #181818",
"^	c #121212",
"/	c #0B0B0B",
"(	c #050505",
"_	c #080808",
":	c #0A0A0A",
"<	c #171717",
"[	c #1B1A1A",
"}	c #1E1E1E",
"|	c #151515",
"1	c #242323",
"2	c #212121",
"3	c #242424",
"4	c #222121",
"5	c #030303",
"6	c #0E0E0E",
"7	c #1F1F1F",
"8	c #232323",
"9	c #262525",
"0	c #141414",
"a	c #202020",
"b	c #161515",
"c	c #201F1F",
"d	c #252424",
"e	c #1F1E1E",
"f	c #212020",
"g	c #222222",
"                             .+@#$%%%%%%%%%%%%%%%%%%%%%%%%%%%%%$&*=-;;>>>>>>>>>>>>>>>>>>>>>>>>>>,,')",
">>>>>>>>>>>>>>>>>>>>>>>>>>>;;-=*&$%%%%%%%%%%%%%%%%%%%%%%%%%%%%%$&*=-;,,,,,,,,,,,,,,,,,,,,,,,,,,,,,,,",
",,,,,,,,,,,,,,,,,,,,,,,,,,,,;-=*&$%%%%%%%%%%%%%%%%%%%%%%%%%%%%%$&*=-;,,,,,,,,,,,,,,,,,,,,,,,,,,,,,,,",
",,,,,,,,,,,,,,,,,,,,,,,,,,,,;-=*&$%%%%%%%%%%%%%%%%%%%%%%%%%%%%%$&*=-;,,,,,,,,,,,,,,,,,,,,,,,,,,,,,,,",
",,,,,,,,,,,,,,,,,,,,,,,,,,,,;-=*&$%%%%%%%%%%%%%%%%%%%%%%%%%%%%%$&*=-;,,,,,,,,,,,,,,,,,,,,,,,,,,,,,,,",
",,,,,,,,,,,,,,,,,,,,,,,,,,,,;-=*&$%%%%%%%%%%%%%%%%%%%%%%%%%%%%%$&*=-;,,,,,,,,,,,,,,,,,,,,,,,,,,,,,,,",
",,,,,,,,,,,,,,,,,,,,,,,,,,,,;-=*&$%%%%%%%%%%%%%%%%%%%%%%%%%%%%%$&*=-;,,,,,,,,,,,,,,,,,,,,,,,,,,,,,,,",
",,,,,,,,,,,,,,,,,,,,,,,,,,,,;-=*&$%%%%%%%%%%%%%%%%%%%%%%%%%%%%%$&*=-;,,,,,,,,,,,,,,,,,,,,,,,,,,,,,,,",
",,,,,,,,,,,,,,,,,,,,,,,,,,,,;-=*&$%%%%%%%%%%%%%%%%%%%%%%%%%%%%%$&*=-;,,,,,,,,,,,,,,,,,,,,,,,,,,,,,,,",
",,,,,,,,,,,,,,,,,,,,,,,,,,,,;-=*&$%%%%%%%%%%%%%%%%%%%%%%%%%%%%%$&*=-;;>>>>>>>>>>>>>>>>>>>>>>>>>>>>>>",
">>>>>>>>>>>>>>>>>>>>>>>>>>>;;-=*&$%%%%%%%%%%%%%%%%%%%%%%%%%%%%%$#@+.                                ",
"                  !!!!!!!!!!!~{]^/(((((((((((((((((((((((((((((_:::_((((((((((((((((((((((((((((((((",
"((((((((((((((((((:^<[~!!!!!!!!!!~                             .+@#$%%%%%%%%%%%%%%%%%%%%%%%%%%%%%%%%",
"%%%%%%%%%%%%%%%%%%$&*=-;;>>>>>>>>>>>>>>>>>>>>>>>>>>>>>>>>>>>>;;-=*&$%%%%%%%%%%%%%%%%%%%%%%%%%%%%%%%%",
"%%%%%%%%%%%%%%%%%%$&*=-;,,,,,,,,,,,,,,,,,,,,,,,,,,,,,,,,,,,,,,;-=*&$%%%%%%%%%%%%%%%%%%%%%%%%%%%%%%%%",
"%%%%%%%%%%%%%%%%%%$&*=-;,,,,,,,,,,,,,,,,,,,,,,,,,,,,,,,,,,,,,,;-=}|/((((((((((((((((((((((((((((((((",
"%%%%%%%%%%%%%%%%%%$&*=-;,,,,,,,,,,,,,,,,,,,,,,,,,,,,,,,,,,,,,,;-12}~                                ",
"%%%%%%%%%%%%%%%%%%$&*=-;,,,,,,,,,,,,,,,,,,,,,,,,,,,,,,,,,,,,,,;-313-;;>>>>>>>>>>>>>>>>>>>>>>>>>>>>>>",
"%%%%%%%%%%%%%%%%%%$&*=-;,,,,,,,,,,,,,,,,,,,,,,,,,,,,,,,,,,,,,,;-313-;,,,,,,,,,,,,,,,,,,,,,,,,,,,,,,,",
"%%%%%%%%%%%%%%%%%%$&*=-;,,,,,,,,,,,,,,,,,,,,,,,,,,,,,,,,,,,,,,;-313-;,,,,,,,,,,,,,,,,,,,,,,,,,,,,,,,",
"%%%%%%%%%%%%%%%%%%$&*=-;,,,,,,,,,,,,,,,,,,,,,,,,,,,,,,,,,,,,,,;-313-;,,,,,,,,,,,,,,,,,,,,,,,,,,,,,,,",
"%%%%%%%%%%%%%%%%%%$&*=-;,,,,,,,,,,,,,,,,,,,,,,,,,,,,,,,,,,,,,,;-313-;,,,,,,,,,,,,,,,,,,,,,,,,,,,,,,,",
"%%%%%%%%%%%%%%%%%%$&*=-;;>>>>>>>>>>>>>>>>>>>>>>>>>>>>>>>>>>>>;;-313-;,,,,,,,,,,,,,,,,,,,,,,,,,,,,,,,",
"%%%%%%%%%%%%%%%%%%$#@+.                                        ~}43-;,,,,,,,,,,,,,,,,,,,,,,,,,,,,,,,",
"%%%%%%%%%%%%%%%%%%5(((((((((((((((((((((((((((((((((((((((((_::6<78-;,,,,,,,,,,,,,,,,,,,,,,,,,,,,,,,",
"(((((((((((((((((((((((((((((((((5%%%%%%%%%%%%%%%%%%%%%%%%%%$#@.78-;,,,,,,,,,,,,,,,,,,,,,,,,,,,,,,,,",
"                             .+@#$%%%%%%%%%%%%%%%%%%%%%%%%%%$&*8;,,,,,,,,,,,,,,,,,,,,,,,,,,,,,,,,,,,",
">>>>>>>>>>>>>>>>>>>>>>>>>>>;;-=*&$%%%%%%%%%%%%%%%%%%%%%%%%%%$&*89,,,,,,,,,,,,,,,,,,,,,,,,,,,,,,,,,,,",
",,,,,,,,,,,,,,,,,,,,,,,,,,,,;-=*&$%%%%%%%%%%%%%%%%%%%%%%%%%%$&*8-;,,,,,,,,,,,,,,,,,,,,,,,,,,,,,,,,,,",
",,,,,,,,,,,,,,,,,,,,,,,,,,,,;-=*&$%%%%%%%%%%%%%%%%%%%%%%%%%%$&*=-;,,,,,,,,,,,,,,,,,,,,,,,,,,,,,,,,,,",
",,,,,,,,,,,,,,,,,,,,,,,,,,,,;-=*&$%%%%%%%%%%%%%%%%%%%%%%%%%%$&*=-;,,,,,,,,,,,,,,,,,,,,,,,,,,,,,,,,,,",
",,,,,,,,,,,,,,,,,,,,,,,,,,,,;-=*&$%%%%%%%%%%%%%%%%%%%%%%%%%%$&*=-;,,,,,,,,,,,,,,,,,,,,,,,,,,,,,,,,,,",
",,,,,,,,,,,,,,,,,,,,,,,,,,,,;-=*&$%%%%%%%%%%%%%%%%%%%%%%%%%%$&*=-;,,,,,,,,,,,,,,,,,,,,,,,,,,,,,,,,,,",
",,,,,,,,,,,,,,,,,,,,,,,,,,,,;-=*&$%%%%%%%%%%%%%%%%%%%%%%%%%%$&*=-;,,,,,,,,,,,,,,,,,,,,,,,,,,,,,,,,,,",
",,,,,,,,,,,,,,,,,,,,,,,,,,,,;-=}|/((((((((((((((((((((((((((:0*=-;,,,,,,,,,,,,,,,,,,,,,,,,,,,,,,,,,,",
",,,,,,,,,,,,,,,,,,,,,,,,,,,,,;-8a*                       .+@^b*=-;;>>>>>>>>>>>>>>>>>>>>>>>>>>>>>>>>>",
">>>>>>>>>>>>>>,,,,,,,,,,,,,,,,,,,>>>>>>>>>>>>>>>>>>>>>>;;-=*|0<[~!!!!!!!!!!!!!!!!!!!!!!!!!!!!!!!!!!!",
"            !c8-;,,,,,,,,,,,,,,,,,,,,,,,,,,,,,,,,,,,,,,,;-=*0#^]{~!!!!!!!!!!!!!!!!!!!!!!!!!!!!!!!!!!",
"((((((((((((:|}8-;,,,,,,,,,,,,,,,,,,,,,,,,,,,,,,,,,,,,,,;-=*&/&*=-;;>>>>>>>>>>>>>>>>>>>>>>>>>>>>>>>>",
"%%%%%%%%%%%%$&*=-;,,,,,,,,,,,,,,,,,,,,,,,,,,,,,,,,,,,,,,;-=*&/&*=-;,,,,,,,,,,,,,,,,,,,,,,,,,,,,,,,,,",
"%%%%%%%%%%%%$&*=-;,,,,,,,,,,,,,,,,,,,,,,,,,,,,,,,,,,,,,,;-=*&/&*=-;,,,,,,,,,,,,,,,,,,,,,,,,,,,,,,,,,",
"%%%%%%%%%%%%$&*=-;,,,,,,,,,,,,,,,,,,,,,,,,,,,,,,,,,,,,,,;-=*&/&*=-;,,,,,,,,,,,,,,,,,,,,,,,,,,,,,,,,,",
"%%%%%%%%%%%%$&*=-;,,,,,,,,,,,,,,,,,,,,,,,,,,,,,,,,,,,,,,;-=*&/&*=-;,,,,,,,,,,,,,,,,,,,,,,,,,,,,,,,,,",
"%%%%%%%%%%%%$&*=-;,,,,,,,,,,,,,,,,,,,,,,,,,,,,,,,,,,,,,,;-=*&/&*=-;,,,,,,,,,,,,,,,,,,,,,,,,,,,,,,,,,",
"%%%%%%%%%%%%$&*=-;,,,,,,,,,,,,,,,,,,,,,,,,,,,,,,,,,,,,,,;-=*&/&*=-;,,,,,,,,,,,,,,,,,,,,,,,,,,,,,,,,,",
"%%%%%%%%%%%%$&*=-;;>>>>>>>>>>>>>>>>>>>>>>>>>>>>>>>>>>>>;;-=*&/&*=-;,,,,,,,,,,,,,,,,,,,,,,,,,,,,,,,,,",
"%%%%%%%%%%%%$#@+.                                        .+@#/&*=-;,,,,,,,,,,,,,,,,,,,,,,,,,,,,,,,,,",
"%%%%%%%%%%%%5((((((((((((((((((((((((((((((((((((((((((((((((_&*=-;;>>>>>>>>>>>>>>>>>>>>>>>>>>>>>>>>",
"%%%%%%%%%%%%%%%%%%%%%%%%%%%%%%%%%%%%%%%%%%%%%%%%%%%%%%%%%%%%%$#@+.                                  ",
"%%%%%%%%%%%%%%%%%%%%%%%%%%%%%%%%%%%%%%%%%%%%%%%%%%%%%%%%%%%%%5((((((((((((((((((((((((((((((((((((((",
"((((((((((((((((((((((((((((((((((((((5%%%%%%%%%%%%%%%%%%%%%%%%%%%%%%%%%%%%%%%%%%%%%%%%%%%%%%%%%%%%%",
"                                  .+@#$%%%%%%%%%%%%%%%%%%%%%%%%5((((((((((((((((((((((((((((((((((((",
">>>>>>>>>>>>>>>>>>>>>>>>>>>>>>>>;;-=*&$%%%%%%%%%%%%%%%%%%%%%%%%$#@+.                                ",
",,,,,,,,,,,,,,,,,,,,,,,,,,,,,,,,,;-=*&$%%%%%%%%%%%%%%%%%%%%%%%%$&*=-;;>>>>>>>>>>>>>>>>>>>>>>>>>>>>>>",
",,,,,,,,,,,,,,,,,,,,,,,,,,,,,,,,,;-=*&$%%%%%%%%%%%%%%%%%%%%%%%%$&*=-;,,,,,,,,,,,,,,,,,,,,,,,,,,,,,,,",
",,,,,,,,,,,,,,,,,,,,,,,,,,,,,,,,,;-=}|/((((((((((((((((((((((((/|}=-;,,,,,,,,,,,,,,,,,,,,,,,,,,,,,,,",
",,,,,,,,,,,,,,,,,,,,,,,,,,,,,,,,,;-12}~                        *a8-;,,,,,,,,,,,,,,,,,,,,,,,,,,,,,,,,",
",,,,,,,,,,,,,,,,,,,,,,,,,,,,,,,,,;-313-;;>>>>>>>>>>>>>>>>>>>>>>>,,,,,,,,,,,,,,,,,,,,,,,,,,,,,,,,,,,,",
",,,,,,,,,,,,,,,,,,,,,,,,,,,,,,,,,;-313-;,,,,,,,,,,,,,,,,,,,,,,,,,,,,,,,,,,,,,,,,,,,,,,,,,,,,,,,,,,,,",
",,,,,,,,,,,,,,,,,,,,,,,,,,,,,,,,,;-313-;,,,,,,,,,,,,,,,,,,,,,,,,,,,,,,,,,,,,,,,,,,,,,,,,,,,,,,,,,,,,",
",,,,,,,,,,,,,,,,,,,,,,,,,,,,,,,,,;-313-;,,,,,,,,,,,,,,,,,,,,,,,,,,,,,,,,,,,,,,,,,,,,,,,,,,,,,,,,,,,,",
">>>>>>>>>>>>>>>>>>>>>>>>>>>>>>>>;;-313-;,,,,,,,,,,,,,,,,,,,,,,,,,,,,,,,,,,,,,,,,,,,,,,,,,,,,,,,,,,,,",
"                                  ~}43-;,,,,,,,,,,,,,,,,,,,,,,,,,,,,,,,,,,,,,,,,,,>>>>>>>>>>>>>>>>>>",
"((((((((((((((((((((((((((((((((((:|}8-;,,,,,,,,,,,,,,,,,,,,,,,,,,,,,,,,,,,,,,,;-8c!                ",
"%%%%%%%%%%%%%%%%%%%%%%%%%%%%%%%%%%$&*=-;,,,,,,,,,,,,,,,,,,,,,,,,,,,,,,,,,,,,,,;-8}|:((((((((((((((((",
"%%%%%%%%%%%%%%%%%%%%%%%%%%%%%%%%%%$&*=-;,,,,,,,,,,,,,,,,,,,,,,,,,,,,,,,,,,,,,,;-=*&$%%%%%%%%%%%%%%%%",
"%%%%%%%%%%%%%%%%%%%%%%%%%%%%%%%%%%$&*=-;;>>>>>>>>>>>>>>>>>>>>>>>>>>>>>>>>>>>>;;-=*&$%%%%%%%%%%%%%%%%",
"%%%%%%5(((((((((((((((((((((((((((:^<[~!!!!!!!!!!!!!!!!~                       .+@#$%%%%%%%%%%%%%%%%",
"%%%%%%$#@+.                       !!!!!!!!!!!!!!!!!~{]^/(((((((((((((((((((((((((((5%%%%%%%%%%%%%%%%",
"%%%%%%$&*=-;;>>>>>>>>>>>>>>>>>>>>>>>>>>>>>>>>>>>>;;-=*&$%%%%%%%%%%%%%%%%%%%%%%%%%%%%%%%%%%%%%%%%%%%%",
"%%%%%%$&*=-;,,,,,,,,,,,,,,,,,,,,,,,,,,,,,,,,,,,,,,;-=*&$%%%%%%%%%%%%%%%%%%%%%%%%%%%%%%%%%%%%%%%%%%%%",
"%%%%%%$&*=-;,,,,,,,,,,,,,,,,,,,,,,,,,,,,,,,,,,,,,,;-=*&$%%%%%%%%%%%%%%%%%%%%%%%%%%%%%%%%%%%%%%%%%%%%",
"((((((/|}=-;,,,,,,,,,,,,,,,,,,,,,,,,,,,,,,,,,,,,,,;-=*&$%%%%%%%%%%%%%%%%%%%%%%%%%%%%%%%%%%%%%%%%%%%%",
"      *a8-;,,,,,,,,,,,,,,,,,,,,,,,,,,,,,,,,,,,,,,,;-=*&$%%%%%%%%%%%%%%%%%%%%%%%%%%%%%%%%%%%%%%%%%%%%",
">>>>>>>,,,,,,,,,,,,,,,,,,,,,,,,,,,,,,,,,,,,,,,,,,,;-=*&$%%%%%%%%%%%%%%%%%%%%%%%%%%%%%%%%%%%%%%%%%%%%",
",,,,,,,,,,,,,,,,,,,,,,,,,,,,,,,,,,,,,,,,,,,,,,,,,,;-=*&$%%%%%%%%%%%%%%%%%%%%%%%%%%%%%%%%%%%%%%%%%%%%",
",,,,,,,,,,,,,,,,,,,,,,,,,,,,,,,,,,,,,,,,,,,,,,,,,,;-=}|/((((((((((((((((((((((((((((((5%%%%%%%%%%%%%",
",,,,,,,,,,,,,,,,,,,,,,,,,,,,,,,,,,,,,,,,,,,,,,,,,,,;-8a*                          .+@#$%%%%%%%%%%%%%",
",,,,,,,,,,,,,,,,,,,,,,,,,,,,,,,,,,,,,,,,,,,,,,,,,,,,,,,>>>>>>>>>>>>>>>>>>>>>>>>>;;-=*&$%%%%%%%%%%%%%",
",,,,,,,,,,,,,,,,,,,,,,,,,,,,,,,,,,,,;-3d9;,,,,,,,,,,,,,,,,,,,,,,,,,,,,,,,,,,,,,,,;-=*&$%%%%%%%%%%%%%",
",,,,,,,,,,,,,,,,,,,,,,,,,,,,,,,,,,,;-8228-;,,,,,,,,,,,,,,,,,,,,,,,,,,,,,,,,,,,,,,;-=*&$%%%%%%%%%%%%%",
",,,,,,,,,,,,,,,,,,,,,,,,,,,,,,,,,,,;-=228-;,,,,,,,,,,,,,,,,,,,,,,,,,,,,,,,,,,,,,,;-=*&$%%%%%%%%%%%%%",
",,,,,,,,,,,,,,,,,,,,,,,,,,,,,,,,,,,;-=228-;,,,,,,,,,,,,,,,,,,,,,,,,,,,,,,,,,,,,,,;-=*&$%%%%%%%%%%%%%",
">>>>>>>>>>>>>>>>>>>>>>>>>>>>>>>>>>;;-=228-;,,,,,,,,,,,,,,,,,,,,,,,,,,,,,,,,,,,,,,;-=*&$%%%%%%%%%%%%%",
"                                    .{!a8-;,,,,,,,,,,,,,,,,,,,,,,,,,,,,,,,,,,,,,,;-=*&$%%%%%%%%%%%%%",
"(((((((((((((((((((((((((((((((((((((:|}8-;,,,,,,,,,,,,,,,,,,,,,,,,,,,,,,,,,,,,,,;-=*&$%%%%%%%%%%%%%",
"%%%%%%%%%%%%%%%%%%%%%%%%%%%%%%%%%%%%%$&*=-;,,,,,,,,,,,,,,,,,,,,,,,,,,,,,,,,,,,,,,;-=*&$%%%%%%%%%%%%%",
"(((((((((((((((((((((((((((((((((((((:|}8-;>>>>>>>>>>>>>>>>>>>>>>>>>>>>>>>>>>>>>>;-8}|:(((((((((((((",
".                                    !ef4g427*                         *724g=======4fe!             ",
"-;;>>>>>>>>>>>>>>>>>>>>>>>>>>>>>>>>>>>>;;-=}|/(((((((((((((((((((((((((/|}=-;;>>>>>>>>>>>>>>>>>>>>>>",
"-;,,,,,,,,,,,,,,,,,,,,,,,,,,,,,,,,,,,,,,;-=*&$%%%%%%%%%%%%%%%%%%%%%%%%%$&*=-;,,,,,,,,,,,,,,,,,,,,,,,",
"-;,,,,,,,,,,,,,,,,,,,,,,,,,,,,,,,,,,,,,,;-=*&$%%%%%%%%%%%%%%%%%%%%%%%%%$&*=-;,,,,,,,,,,,,,,,,,,,,,,,",
"-;,,,,,,,,,,,,,,,,,,,,,,,,,,,,,,,,,,,,,,;-=*&$%%%%%%%%%%%%%%%%%%%%%%%%%$&*=-;,,,,,,,,,,,,,,,,,,,,,,,",
"-;,,,,,,,,,,,,,,,,,,,,,,,,,,,,,,,,,,,,,,;-=*&$%%%%%%%%%%%%%%%%%%%%%%%%%$&*=-;,,,,,,,,,,,,,,,,,,,,,,,",
"-;,,,,,,,,,,,,,,,,,,,,,,,,,,,,,,,,,,,,,,;-=*&$%%%%%%%%%%%%%%%%%%%%%%%%%$&*=-;,,,,,,,,,,,,,,,,,,,,,,,",
"-;,,,,,,,,,,,,,,,,,,,,,,,,,,,,,,,,,,,,,,;-=*&$%%%%%%%%%%%%%%%%%%%%%%%%%$&*=-;,,,,,,,,,,,,,,,,,,,,,,,",
"-;,,,,,,,,,,,,,,,,,,,,,,,,,,,,,,,,,,,,,,;-=*&$%%%%%%%%%%%%%%%%%%%%%%%%%$&*=-;,,,,,,,,,,,,,,,,,,,,,,,",
"-;,,,,,,,,,,,,,,,,,,,,,,,,,,,,,,,,,,,,,,;-=*&$%%%%%%%%%%%%%%%%%%%%%%%%%$&*=-;,,,,,,,,,,,,,,,,,,,,,,,",
"-;;>>>>>>>>>>>>>>>>>>>>>>>>>>>>>>>>>>>>;;-=*&$%%%%%%%%%%%%%%%%%%%%%%%%%$&*=-;;>>>>>>>>>>>>>>>>>>>>>>",
".                                        .+@#$%%%%%%%%%%%%%%%%%%%%%%%%%$#@+.                        "};
